<svg xmlns="http://www.w3.org/2000/svg" width="674" height="257" viewBox="0 0 674 257">
  <defs>
    <style>
      .cls-1 {
        fill: #a24efe;
      }

      .cls-2 {
        fill: #ec97fe;
      }

      .cls-3 {
        fill: #fff;
      }
    </style>
  </defs>
  <g id="Grupo_17" transform="translate(-2613 -4646)">
    <g id="Componente_4_7" transform="translate(3287 4903) rotate(180)">
      <circle id="Elipse_4" class="cls-1" cx="128.5" cy="128.5" r="128.5"/>
      <path id="Trazado_16" class="cls-2" d="M78.156,0a128.5,128.5,0,0,1,0,257c-70.969,0,55.911-57.531,55.911-128.5S7.187,0,78.156,0Z" transform="translate(50.344)"/>
    </g>
    <g id="Componente_2_7" transform="translate(2613 4666.686)">
      <path id="Trazado_9" class="cls-3" d="M40.125,253.357V37.686H65.2V253.357ZM246.06,195.972q0,28.471-20.653,44.4c-13.768,10.621-32.749,12.982-56.352,12.982h-79.9v-21.98h80.783c16.719,0,29.6-.221,38.06-6.565s12.687-15.17,12.687-26.479q0-11.211-4.5-18.366t-15.047-13.2q-10.548-6.048-32.085-13.719-30.094-10.769-43-25.521t-12.908-38.5q0-24.931,18.735-39.682c12.49-9.835,29.276-11.654,49.83-11.654,21.439,0,228.684.148,228.684.148V60.108H181.121c-13.277,0-23.916-.246-31.39,5.458s-11.211,13.621-11.211,23.75q0,11.211,4.13,18.366t13.94,13.129q9.81,5.975,30.02,13.2,33.929,12.1,46.689,25.963T246.06,195.972Zm164.335,57.384H290.168V85.686h25.078v43.756h89.4V151.57h-89.4v79.365h95.149Z" transform="translate(-40.125 -37.686)"/>
    </g>
  </g>
</svg>
